<svg width="303" height="43" viewBox="0 0 303 43" fill="none" xmlns="http://www.w3.org/2000/svg">
<path d="M10 0.5H293C298.247 0.5 302.5 4.7533 302.5 10V33C302.5 38.2467 298.247 42.5 293 42.5H10C4.75337 42.5 0.5 38.2458 0.5 32.999V32.9515V32.904V32.8565V32.809V32.7616V32.7142V32.6669V32.6195V32.5722V32.525V32.4777V32.4305V32.3833V32.3362V32.2891V32.242V32.1949V32.1479V32.1009V32.0539V32.007V31.96V31.9131V31.8663V31.8194V31.7726V31.7259V31.6791V31.6324V31.5857V31.539V31.4924V31.4458V31.3992V31.3526V31.3061V31.2596V31.2131V31.1666V31.1202V31.0738V31.0274V30.9811V30.9347V30.8884V30.8422V30.7959V30.7497V30.7035V30.6573V30.6112V30.565V30.5189V30.4729V30.4268V30.3808V30.3348V30.2888V30.2429V30.1969V30.151V30.1051V30.0593V30.0134V29.9676V29.9218V29.8761V29.8303V29.7846V29.7389V29.6932V29.6476V29.6019V29.5563V29.5107V29.4652V29.4196V29.3741V29.3286V29.2831V29.2377V29.1922V29.1468V29.1014V29.056V29.0107V28.9654V28.92V28.8748V28.8295V28.7842V28.739V28.6938V28.6486V28.6034V28.5583V28.5131V28.468V28.4229V28.3778V28.3328V28.2877V28.2427V28.1977V28.1527V28.1078V28.0628V28.0179V27.973V27.9281V27.8832V27.8383V27.7935V27.7487V27.7039V27.6591V27.6143V27.5695V27.5248V27.4801V27.4354V27.3907V27.346V27.3013V27.2567V27.2121V27.1675V27.1229V27.0783V27.0337V26.9892V26.9446V26.9001V26.8556V26.8111V26.7666V26.7222V26.6777V26.6333V26.5889V26.5445V26.5001V26.4557V26.4113V26.367V26.3227V26.2783V26.234V26.1897V26.1454V26.1012V26.0569V26.0127V25.9684V25.9242V25.88V25.8358V25.7916V25.7475V25.7033V25.6591V25.615V25.5709V25.5268V25.4827V25.4386V25.3945V25.3504V25.3064V25.2623V25.2183V25.1742V25.1302V25.0862V25.0422V24.9982V24.9542V24.9103V24.8663V24.8223V24.7784V24.7345V24.6905V24.6466V24.6027V24.5588V24.5149V24.471V24.4272V24.3833V24.3394V24.2956V24.2518V24.2079V24.1641V24.1203V24.0765V24.0327V23.9889V23.9451V23.9013V23.8575V23.8137V23.77V23.7262V23.6825V23.6387V23.595V23.5512V23.5075V23.4638V23.4201V23.3763V23.3326V23.2889V23.2452V23.2015V23.1579V23.1142V23.0705V23.0268V22.9831V22.9395V22.8958V22.8522V22.8085V22.7649V22.7212V22.6776V22.6339V22.5903V22.5466V22.503V22.4594V22.4158V22.3721V22.3285V22.2849V22.2413V22.1977V22.154V22.1104V22.0668V22.0232V21.9796V21.936V21.8924V21.8488V21.8052V21.7616V21.718V21.6744V21.6308V21.5872V21.5436V21.5V21.4564V21.4128V21.3692V21.3256V21.282V21.2384V21.1948V21.1512V21.1076V21.064V21.0204V20.9768V20.9332V20.8896V20.8459V20.8023V20.7587V20.7151V20.6715V20.6279V20.5842V20.5406V20.497V20.4533V20.4097V20.3661V20.3224V20.2788V20.2351V20.1915V20.1478V20.1042V20.0605V20.0168V19.9732V19.9295V19.8858V19.8421V19.7984V19.7548V19.7111V19.6674V19.6236V19.5799V19.5362V19.4925V19.4488V19.405V19.3613V19.3175V19.2738V19.23V19.1863V19.1425V19.0987V19.0549V19.0111V18.9673V18.9235V18.8797V18.8359V18.7921V18.7482V18.7044V18.6605V18.6167V18.5728V18.5289V18.4851V18.4412V18.3973V18.3534V18.3095V18.2655V18.2216V18.1776V18.1337V18.0897V18.0458V18.0018V17.9578V17.9138V17.8698V17.8258V17.7817V17.7377V17.6936V17.6496V17.6055V17.5614V17.5173V17.4732V17.4291V17.385V17.3408V17.2967V17.2525V17.2084V17.1642V17.12V17.0758V17.0316V16.9873V16.9431V16.8988V16.8545V16.8103V16.766V16.7217V16.6773V16.633V16.5886V16.5443V16.4999V16.4555V16.4111V16.3667V16.3223V16.2778V16.2334V16.1889V16.1444V16.0999V16.0554V16.0108V15.9663V15.9217V15.8771V15.8325V15.7879V15.7433V15.6987V15.654V15.6093V15.5646V15.5199V15.4752V15.4305V15.3857V15.3409V15.2961V15.2513V15.2065V15.1617V15.1168V15.0719V15.027V14.9821V14.9372V14.8922V14.8473V14.8023V14.7573V14.7123V14.6672V14.6222V14.5771V14.532V14.4869V14.4417V14.3966V14.3514V14.3062V14.261V14.2158V14.1705V14.1252V14.0799V14.0346V13.9893V13.9439V13.8986V13.8532V13.8078V13.7623V13.7169V13.6714V13.6259V13.5804V13.5348V13.4892V13.4437V13.398V13.3524V13.3068V13.2611V13.2154V13.1697V13.1239V13.0782V13.0324V12.9865V12.9407V12.8949V12.849V12.8031V12.7571V12.7112V12.6652V12.6192V12.5732V12.5271V12.481V12.4349V12.3888V12.3427V12.2965V12.2503V12.2041V12.1578V12.1116V12.0653V12.0189V11.9726V11.9262V11.8798V11.8334V11.7869V11.7404V11.6939V11.6474V11.6008V11.5542V11.5076V11.461V11.4143V11.3676V11.3209V11.2741V11.2274V11.1805V11.1337V11.0868V11.04V10.993V10.9461V10.8991V10.8521V10.8051V10.758V10.7109V10.6638V10.6166V10.5695V10.5223V10.475V10.4278V10.3805V10.3331V10.2858V10.2384V10.191V10.1435V10.096V10.0485V10.001C0.5 4.75422 4.75336 0.5 10 0.5Z" fill="white" stroke="#E9E9E9"/>
</svg>
